<svg xmlns="http://www.w3.org/2000/svg" xmlns:xlink="http://www.w3.org/1999/xlink" viewBox="0,0,256,256" width="64px" height="64px"><g fill="#ff4b5c" fill-rule="nonzero" stroke="none" stroke-width="1" stroke-linecap="butt" stroke-linejoin="miter" stroke-miterlimit="10" stroke-dasharray="" stroke-dashoffset="0" font-family="none" font-weight="none" font-size="none" text-anchor="none" style="mix-blend-mode: normal"><g transform="scale(8,8)"><path d="M14.94727,3c-0.24984,0.01266 -0.4857,0.12078 -0.6582,0.30078c-0.24,0.24 -0.33953,0.58992 -0.26953,0.91992l0.65039,2.85938c-0.03,0.08 -0.04031,0.16977 -0.07031,0.25977c-5.36071,0.4373 -9.22814,2.76928 -10.80859,6.37109c-1.61403,3.11586 -2.2703,6.88979 -1.42578,10.31055c0.89122,3.60993 3.58346,6.78176 8.30469,7.89844c0.35223,0.09546 0.72849,-0.00852 0.98172,-0.27129c0.25324,-0.26277 0.34324,-0.64262 0.23483,-0.99108c-0.10841,-0.34846 -0.39801,-0.61021 -0.75562,-0.68295c-4.08977,-0.96732 -6.08294,-3.43103 -6.82422,-6.43359c-0.11506,-0.46606 -0.18476,-0.94884 -0.23437,-1.4375c1.89061,3.59648 6.18575,5.79159 12.01758,5.88672h0.05078c0.8,0 1.44922,-0.65117 1.44922,-1.45117c0,-0.81 -0.64922,-1.45898 -1.44922,-1.45898c-1.13,0 -1.61984,-1.05055 -2.08984,-2.06055c-0.72,-1.5 -1.60102,-3.37883 -4.29102,-4.04883c-0.54,-0.13 -0.86047,-0.68094 -0.73047,-1.21094c0.13,-0.54 0.68094,-0.87047 1.21094,-0.73047c3.62,0.9 4.86938,3.56063 5.60938,5.14063c0.15,0.31 0.35047,0.73016 0.48047,0.91016c1.82,0.1 3.25977,1.60899 3.25977,3.45898c0,0.45 -0.09,0.89125 -0.25,1.28125c4.21,-0.53 7.41016,-2.30094 9.16016,-4.96094c0.25,-0.58 0.20055,-1.25875 -0.18945,-1.71875c-0.56,-0.67 -1.57,-0.76117 -2.25,-0.20117c-0.42,0.36 -1.05016,0.30086 -1.41016,-0.11914c-0.35,-0.43 -0.29109,-1.06016 0.12891,-1.41016c1.5,-1.25 3.72,-1.09086 5,0.36914c0.14,-0.69 0.2207,-1.41016 0.2207,-2.16016c0,-1.97 -0.52023,-3.72898 -1.49023,-5.20898c0.81,-1.04 1.16016,-2.26016 1.16016,-3.41016c0,-0.66 -0.11984,-1.30992 -0.33984,-1.91992l0.65039,-2.85937c0.07,-0.33 -0.02953,-0.67992 -0.26953,-0.91992c-0.23,-0.24 -0.57016,-0.35125 -0.91016,-0.28125l-3.08008,0.62109c-1.1,-0.43 -2.3507,-0.64062 -3.7207,-0.64062c-1.37,0 -2.6207,0.21062 -3.7207,0.64063l-3.08008,-0.62109c-0.085,-0.0175 -0.16867,-0.02375 -0.25195,-0.01953zM19,7c0.55,0 1,0.45 1,1c0,0.55 -0.45,1 -1,1c-0.55,0 -1,-0.45 -1,-1c0,-0.55 0.45,-1 1,-1zM25,7c0.55,0 1,0.45 1,1c0,0.55 -0.45,1 -1,1c-0.55,0 -1,-0.45 -1,-1c0,-0.55 0.45,-1 1,-1z"></path></g></g></svg>