<svg xmlns="http://www.w3.org/2000/svg" xmlns:xlink="http://www.w3.org/1999/xlink" viewBox="0,0,256,256" width="50px" height="50px"><g fill="#ff4b5c" fill-rule="nonzero" stroke="none" stroke-width="1" stroke-linecap="butt" stroke-linejoin="miter" stroke-miterlimit="10" stroke-dasharray="" stroke-dashoffset="0" font-family="none" font-weight="none" font-size="none" text-anchor="none" style="mix-blend-mode: normal"><g transform="scale(5.12,5.12)"><path d="M17.53711,-0.04687c-0.55988,0.0068 -1.1078,0.22388 -1.5293,0.60938c-0.76,0.696 -0.90256,0.90655 -0.97656,1.18555c-0.207,0.801 -0.83775,3.23595 -6.96875,3.25195c-4.443,0.012 -8.0825,3.61364 -8.0625,8.05664c0.028,6.224 4.795,8.43428 8,8.86328v25.08008c0,1.657 1.343,3 3,3c1.657,0 3,-1.343 3,-3v-15.99023c0.05037,-0.32661 0.82383,-0.85003 2,-1.37109v17.36133c0,1.657 1.343,3 3,3c1.657,0 3,-1.343 3,-3v-18.91602c0.49982,-0.04829 1.00232,-0.08398 1.5,-0.08398c4.5,0 9.369,2.167 9.5,3v16c0,1.657 1.343,3 3,3c1.657,0 3,-1.343 3,-3v-15c0,-0.552 0.448,-1 1,-1c0.552,0 1,0.448 1,1v15c0,1.657 1.343,3 3,3c1.657,0 3,-1.343 3,-3v-24.62891c-1.728,1.026 -3.786,1.62891 -6,1.62891c-6.065,0 -11,-4.486 -11,-10v-1.16992c-2.278,-0.53 -5.062,-0.83008 -8,-0.83008c-3.848,0 -7.90514,1.67253 -10.86914,2.89453c-1.256,0.518 -2.68186,1.10547 -3.13086,1.10547c-1.858,0 -3.3275,-1.69705 -2.9375,-3.62305c0.285,-1.403 1.60316,-2.37195 3.03516,-2.37695c8.117,-0.029 10.87648,-3.72442 11.77148,-6.85742c0.328,-1.31 -0.35214,-2.60312 -1.61914,-3.07812c-0.049,-0.018 -0.1013,-0.03388 -0.1543,-0.04687c-0.185,-0.04575 -0.37197,-0.06672 -0.55859,-0.06445zM32.9043,3.00391c-0.09737,0.00934 -0.19361,0.03352 -0.28711,0.07227c-0.374,0.155 -0.61719,0.51983 -0.61719,0.92383v10c0,4.411 4.037,8 9,8c4.963,0 9,-3.589 9,-8v-10c0,-0.404 -0.24319,-0.76883 -0.61719,-0.92383c-0.375,-0.155 -0.80384,-0.0702 -1.08984,0.2168l-3.50781,3.50781c-1.248,-0.526 -2.54416,-0.80078 -3.78516,-0.80078c-1.261,0 -2.62992,0.29002 -3.79492,0.79102l-3.49805,-3.49805c-0.2145,-0.21525 -0.51061,-0.31709 -0.80273,-0.28906zM37.5,11c0.828,0 1.5,0.671 1.5,1.5c0,0.829 -0.672,1.5 -1.5,1.5c-0.828,0 -1.5,-0.671 -1.5,-1.5c0,-0.829 0.672,-1.5 1.5,-1.5zM44.5,11c0.828,0 1.5,0.671 1.5,1.5c0,0.829 -0.672,1.5 -1.5,1.5c-0.828,0 -1.5,-0.671 -1.5,-1.5c0,-0.829 0.672,-1.5 1.5,-1.5z"></path></g></g></svg>