<svg xmlns="http://www.w3.org/2000/svg" xmlns:xlink="http://www.w3.org/1999/xlink" viewBox="0,0,256,256" width="64px" height="64px"><g fill="#ff4b5c" fill-rule="nonzero" stroke="none" stroke-width="1" stroke-linecap="butt" stroke-linejoin="miter" stroke-miterlimit="10" stroke-dasharray="" stroke-dashoffset="0" font-family="none" font-weight="none" font-size="none" text-anchor="none" style="mix-blend-mode: normal"><g transform="scale(2,2)"><path d="M99.18945,0.98047c-0.19199,-0.01113 -0.38984,-0.00547 -0.58984,0.01953c-0.7,0.1 -1.29922,0.40039 -1.69922,0.90039l-4,4c-2.9,2.9 -6.70078,4.8 -10.80078,5c-4.7,0.3 -9.19961,-1.40117 -12.59961,-4.70117l-4.30078,-4.29883c-0.5,-0.5 -1.09922,-0.80039 -1.69922,-0.90039c-1.6,-0.2 -3.00078,0.90078 -3.30078,2.30078l-22.29883,99.29883c-0.6,2.7 -0.59961,5.49961 -0.09961,8.09961c0.3,1.8 0.89883,3.60117 1.79883,5.20117c0.7,1.4 0.29961,3.10039 -0.90039,3.90039c-0.5,0.4 -1.09922,0.5 -1.69922,0.5c-1.1,0 -2.09922,-0.60156 -2.69922,-1.60156c-1.3,-2.5 -2.1,-5.2 -2.5,-8c-0.1,-0.8 -0.7,-1.49922 -1.5,-1.69922l-13.90039,-3.19922c-3.2,-0.7 -6.49961,-0.00039 -9.09961,2.09961c-2.7,2.2 -4.2,5.5 -4,9c0.3,5.7 5.29961,10.09961 11.09961,10.09961h75.69922h0.40039h0.30078h0.19922c1.6,-0.4 2.79922,-2.10039 2.19922,-3.90039c-0.4,-1.2 -1.59844,-2 -2.89844,-2c-1.6,0 -2.90039,-1.4 -2.90039,-3v-0.40039l-0.5,-18.69922c0,-1.7 1.3,-3 3,-3c1.6,0 3,1.3 3,3l0.09961,16.5c3.5,1.2 6,4.6 6,8.5v0.80078c-0.1,1.2 0.70039,2.19922 1.90039,2.19922h3.29883c6,0 11.70156,-2.40039 15.60156,-6.90039c4.2,-4.8 5.79844,-11.3 4.39844,-17.5l-22.29883,-99.29883c-0.2625,-1.3125 -1.36699,-2.24238 -2.71094,-2.32031zM71,31c1.7,0 3,1.3 3,3c0,1.7 -1.3,3 -3,3c-1.7,0 -3,-1.3 -3,-3c0,-1.7 1.3,-3 3,-3zM91,31c1.7,0 3,1.3 3,3c0,1.7 -1.3,3 -3,3c-1.7,0 -3,-1.3 -3,-3c0,-1.7 1.3,-3 3,-3zM71.90039,96c1.7,0 3,1.3 3,3l0.09961,18.40039c0,1.7 -1.3,3 -3,3c-1.7,0 -3,-1.3 -3,-3l-0.09961,-18.40039c0,-1.7 1.3,-3 3,-3z"></path></g></g></svg>